<?xml version="1.0" encoding="iso-8859-1"?>
<!-- Generator: Adobe Illustrator 19.0.0, SVG Export Plug-In . SVG Version: 6.00 Build 0)  -->
<svg version="1.1" id="Layer_1" xmlns="http://www.w3.org/2000/svg" xmlns:xlink="http://www.w3.org/1999/xlink" x="0px" y="0px"
	 viewBox="0 0 512 512" style="enable-background:new 0 0 512 512;" xml:space="preserve">
<g>
	<polygon style="fill:#BDC3C7;" points="406.069,105.931 300.138,105.931 300.138,0 	"/>
	<polygon style="fill:#9777A8;" points="132.414,406.069 512,406.069 512,194.207 132.414,194.207 	"/>
	<polygon style="fill:#ECF0F1;" points="132.414,406.069 132.414,194.207 406.069,194.207 406.069,105.931 300.138,105.931 
		300.138,0 0,0 0,512 406.069,512 406.069,406.069 	"/>
	<g>
		<path style="fill:#FFFFFF;" d="M238.336,379.586c-43.811,0-79.448-35.646-79.448-79.448s35.637-79.448,79.448-79.448
			c17.999,0,35.646,6.188,49.664,17.434c3.814,3.046,4.423,8.598,1.368,12.403c-3.037,3.814-8.58,4.431-12.403,1.368
			c-11.07-8.863-24.426-13.55-38.63-13.55c-34.066,0-61.793,27.719-61.793,61.793s27.727,61.793,61.793,61.793
			c14.204,0,27.56-4.687,38.63-13.55c3.796-3.046,9.366-2.428,12.403,1.368c3.054,3.805,2.445,9.357-1.368,12.403
			C273.982,373.398,256.335,379.586,238.336,379.586"/>
		<path style="fill:#FFFFFF;" d="M379.586,308.966h-70.621c-4.882,0-8.828-3.955-8.828-8.828c0-4.873,3.946-8.828,8.828-8.828
			h70.621c4.882,0,8.828,3.955,8.828,8.828C388.414,305.011,384.468,308.966,379.586,308.966"/>
		<path style="fill:#FFFFFF;" d="M344.276,344.276c-4.882,0-8.828-3.955-8.828-8.828v-70.621c0-4.873,3.946-8.828,8.828-8.828
			c4.882,0,8.828,3.955,8.828,8.828v70.621C353.103,340.321,349.158,344.276,344.276,344.276"/>
		<path style="fill:#FFFFFF;" d="M476.69,308.966h-70.621c-4.882,0-8.828-3.955-8.828-8.828c0-4.873,3.946-8.828,8.828-8.828h70.621
			c4.882,0,8.828,3.955,8.828,8.828C485.517,305.011,481.571,308.966,476.69,308.966"/>
		<path style="fill:#FFFFFF;" d="M441.379,344.276c-4.882,0-8.828-3.955-8.828-8.828v-70.621c0-4.873,3.946-8.828,8.828-8.828
			c4.882,0,8.828,3.955,8.828,8.828v70.621C450.207,340.321,446.261,344.276,441.379,344.276"/>
	</g>
</g>
<g>
</g>
<g>
</g>
<g>
</g>
<g>
</g>
<g>
</g>
<g>
</g>
<g>
</g>
<g>
</g>
<g>
</g>
<g>
</g>
<g>
</g>
<g>
</g>
<g>
</g>
<g>
</g>
<g>
</g>
</svg>
