<?xml version="1.0" encoding="iso-8859-1"?>
<!-- Generator: Adobe Illustrator 19.0.0, SVG Export Plug-In . SVG Version: 6.00 Build 0)  -->
<svg version="1.1" id="Capa_1" xmlns="http://www.w3.org/2000/svg" xmlns:xlink="http://www.w3.org/1999/xlink" x="0px" y="0px"
	 viewBox="0 0 512 512" style="enable-background:new 0 0 512 512;" xml:space="preserve">
<path style="fill:#F2F2F2;" d="M512,256c0,82.317-38.86,155.564-99.234,202.397C369.455,492.001,315.068,512,256,512
	c-58.535,0-112.473-19.644-155.596-52.705C39.361,412.515,0,338.85,0,256C0,114.615,114.615,0,256,0S512,114.615,512,256z"/>
<path style="fill:#E64C18;" d="M441.992,119.474l-29.226,338.923C369.455,492.001,315.068,512,256,512
	c-58.535,0-112.473-19.644-155.596-52.705L71.105,119.474H441.992z"/>
<polygon style="fill:#F36518;" points="256.546,151.249 256.546,504.167 378.46,469.75 405.655,151.249 "/>
<polygon style="fill:#FFFFFF;" points="140.903,195.528 152.858,337.091 311.761,337.091 306.562,395.568 256.549,409.112 
	204.46,394.52 203.152,358.061 154.631,358.061 160.705,429.941 256.549,457.028 352.392,429.941 364.27,289.295 196.928,289.295 
	192.775,243.456 192.774,243.454 368.226,242.535 372.194,195.528 "/>
<polygon points="151.159,16.796 151.159,41.117 127.921,41.117 127.921,16.796 106.303,16.796 106.303,86.513 127.921,86.513 
	127.921,63.815 151.159,63.815 151.159,86.513 172.777,86.513 172.777,16.796 "/>
<polygon points="249.521,16.796 183.045,16.796 183.045,41.117 204.663,41.117 204.663,87.055 227.903,87.055 227.903,41.117 
	249.521,41.117 "/>
<polygon points="373.284,64.895 373.284,17.337 350.044,17.337 350.044,64.895 350.044,87.055 373.284,87.055 406.79,87.055 
	406.79,64.895 "/>
<polygon points="314.914,17.337 298.702,42.197 282.488,17.337 259.249,17.337 259.249,87.055 282.488,87.055 282.488,52.465 
	298.702,77.327 314.914,52.465 314.914,87.055 338.154,87.055 338.154,17.337 "/>
<g>
</g>
<g>
</g>
<g>
</g>
<g>
</g>
<g>
</g>
<g>
</g>
<g>
</g>
<g>
</g>
<g>
</g>
<g>
</g>
<g>
</g>
<g>
</g>
<g>
</g>
<g>
</g>
<g>
</g>
</svg>
