<?xml version="1.0" encoding="UTF-8"?>
<svg xmlns="http://www.w3.org/2000/svg" xmlns:xlink="http://www.w3.org/1999/xlink" width="250pt" height="250pt" viewBox="0 0 250 250" version="1.1">
<g id="surface5190643">
<path style=" stroke:none;fill-rule:nonzero;fill:rgb(10.196078%,25.098039%,16.470588%);fill-opacity:1;" d="M 250 124.695312 C 250 142.820312 237.863281 155 219.804688 155 C 213.144531 155 207.308594 153.335938 202.601562 150.328125 C 201.84375 154.546875 200.53125 158.210938 198.265625 161.621094 C 194.234375 167.726562 185.984375 175 169.546875 175 C 163.324219 175 157.886719 174.039062 152.429688 171.976562 L 145.96875 169.53125 L 145.96875 155 C 145.96875 155 92.015625 155 89.519531 155 C 84.691406 155 80.851562 154.261719 77.71875 153.078125 C 77.226562 154.53125 76.679688 155.945312 75.960938 157.308594 C 72.871094 163.308594 68.605469 167.25 61.234375 170.914062 L 56.898438 173.070312 L 52.519531 171.003906 L 40.84375 165.5 L 14.511719 150.878906 L 14.566406 150.875 C 5.234375 145.988281 0 136.960938 0 124.71875 C 0 107.65625 11.25 95.375 27.804688 93.734375 L 27.804688 75 L 80.085938 75 L 80.085938 96.984375 C 84.371094 95.699219 88.734375 95 93.308594 95 C 100.140625 95 104.875 96.644531 108.226562 98.859375 L 110.863281 98.140625 C 118.820312 95.96875 125.386719 95 132.15625 95 C 141.09375 95 147.953125 97.484375 152.558594 102.394531 C 153.21875 103.101562 153.796875 103.816406 154.324219 104.546875 C 160.46875 98.851562 169.960938 95 183.789062 95 C 189.730469 95 195.398438 95.59375 202.175781 96.933594 L 206.558594 97.800781 C 210.578125 96 215.191406 95 220.296875 95 C 238.058594 95 250 106.933594 250 124.695312 Z M 37.804688 85 L 37.804688 104.195312 C 35.925781 103.710938 33.679688 103.546875 31.640625 103.546875 C 18.484375 103.546875 10 111.878906 10 124.71875 C 10 138.046875 18 144.984375 33.375 145 C 38.511719 145 43.554688 144.515625 50 143.285156 L 50 85 Z M 37.804688 114.324219 L 37.804688 134.546875 C 36.003906 134.789062 34.183594 134.871094 32.789062 134.871094 C 26.34375 134.871094 22.828125 131.175781 22.828125 124.480469 C 22.828125 117.605469 26.503906 113.679688 32.871094 113.679688 C 34.425781 113.679688 36.328125 113.839844 37.804688 114.324219 Z M 57.433594 105 L 57.433594 129.578125 C 57.433594 140.425781 56.871094 144.550781 55.070312 148.109375 C 53.355469 151.589844 50.664062 153.875 45.109375 156.453125 L 56.789062 161.960938 C 62.34375 159.199219 65.035156 156.699219 67.074219 152.734375 C 69.261719 148.609375 70 143.824219 70 133.878906 L 70 105 Z M 57.5 97.789062 L 70.085938 97.789062 L 70.085938 85 L 57.5 85 Z M 77.480469 117.980469 C 82.144531 115.550781 87.121094 114.285156 91.539062 114.285156 C 94.558594 114.285156 95.648438 115.078125 95.648438 117.273438 L 95.648438 119.941406 C 80.976562 121.191406 75 125.113281 75 133.609375 C 75 141.464844 79.496094 145 89.519531 145 C 94.480469 145 101.238281 144.441406 106.601562 143.660156 L 106.601562 119.070312 C 106.601562 114.035156 106.273438 111.683594 105.273438 109.875 C 103.488281 106.648438 99.453125 105 93.308594 105 C 87.796875 105 82.746094 106.105469 77.464844 108.613281 Z M 96.183594 127.859375 L 96.183594 135.964844 C 93.859375 136.355469 92.230469 136.511719 90.445312 136.511719 C 87.179688 136.511719 85.699219 135.40625 85.699219 133.050781 C 85.699219 129.898438 88.273438 128.640625 96.183594 127.859375 Z M 113.5 145 L 125 145 L 125 115.785156 C 127.386719 115.054688 129.214844 114.898438 130.839844 114.898438 C 135.074219 114.898438 137.054688 116.660156 137.054688 121.375 L 137.054688 145 L 148.503906 145 L 148.503906 120.886719 C 148.503906 114.738281 147.71875 111.859375 145.261719 109.230469 C 142.644531 106.441406 138.238281 105 132.15625 105 C 126.300781 105 120.519531 105.871094 113.5 107.785156 Z M 155.976562 151.339844 L 155.976562 162.621094 C 160.386719 164.289062 164.636719 165 169.546875 165 C 179.199219 165 185.996094 162.054688 189.921875 156.109375 C 192.609375 152.050781 193.519531 147.140625 193.519531 136.664062 L 193.519531 133.328125 C 193.433594 131.660156 193.433594 129.996094 193.355469 128.324219 L 193.273438 121.65625 L 193.113281 116.5 L 193.113281 115.226562 C 195.644531 115.460938 192.566406 114.925781 195.921875 115.554688 L 200.234375 106.746094 C 194.183594 105.550781 189.191406 105 183.789062 105 C 165.394531 105 155 112.851562 155 126.738281 C 155 137.925781 162.023438 144.988281 173.066406 144.988281 C 176.324219 144.988281 178.789062 144.5 181.238281 143.320312 L 181.238281 143.554688 C 181.238281 151.324219 177.71875 154.585938 169.464844 154.585938 C 164.796875 154.585938 160.386719 153.558594 155.976562 151.339844 Z M 181 115.789062 L 181.085938 119.835938 L 181.164062 125.464844 C 181.164062 127.136719 181.25 128.71875 181.25 130.15625 L 181.25 134.375 C 179.628906 134.851562 178.230469 135.160156 176.515625 135.160156 C 170.949219 135.160156 167.839844 131.664062 167.839844 125.566406 C 167.839844 121.285156 169.394531 118.265625 172.410156 116.601562 C 174.375 115.40625 177.246094 114.773438 179.695312 114.855469 L 181 114.855469 Z M 200 125.386719 C 200 137.484375 207.554688 145 219.804688 145 C 232.214844 145 240 137.175781 240 124.695312 C 240 112.519531 232.523438 105 220.296875 105 C 207.804688 105 200.019531 112.824219 200 125.386719 Z M 220.039062 135.375 C 215.28125 135.375 212.484375 131.578125 212.484375 124.984375 C 212.484375 118.390625 215.265625 114.59375 220.121094 114.59375 C 224.816406 114.59375 227.511719 118.46875 227.511719 124.984375 C 227.515625 131.578125 224.738281 135.375 220.039062 135.375 Z M 220.039062 135.375 "/>
</g>
</svg>
